# ProBuilder 4.4.0
# https://unity3d.com/unity/features/worldbuilding/probuilder
# 14.12.2020 15:27:30

mtllib ./RFA_demo_props_2.mtl
o RFA_demo_props_2

g Cube (2)
v 0 -1.862645E-08 8.062181
v -6.092846 -1.862645E-08 8.062181
v 0 1 8.062181
v -6.092846 1 8.062181
v -6.092846 1.117587E-08 0
v -6.092846 1.117587E-08 -1
v -6.092846 1 0
v -6.092846 1 -1
v 0 0 -1
v 0 1 -1
v 0 0 0
v 0 1 0
v 0 1.117587E-08 3.06178
v -6.092846 1.117587E-08 3.06178
v 0 1 3.06178
v -6.092846 1 3.06178
v -6.092846 2.0001 0
v 0 2.0001 0
v -6.092846 2.0001 3.06178
v 0 2.0001 3.06178
v 0 2.0001 8.062181
v -6.092846 2.0001 8.062181
v 0 2.0001 4.06188
v 0 1 4.06188
v -6.092846 1 4.06188
v -6.092846 2.0001 4.06188
v -6.092846 3.0002 3.06178
v 0 3.0002 3.06178
v -6.092846 3.0002 4.06188
v 0 3.0002 4.06188
v 0 -1.862645E-08 4.06188
v -6.092846 -1.862645E-08 4.06188
v 0 2.0001 5.06198
v 0 1 5.06198
v -6.092846 1 5.06198
v -6.092846 2.0001 5.06198
v -6.092846 3.0002 5.06198
v 0 3.0002 5.06198
v 0 -1.862645E-08 5.06198
v -6.092846 -1.862645E-08 5.06198
v 0 3.0002 8.062181
v -6.092846 3.0002 8.062181
v 0 -1.862645E-08 6.06208
v -6.092846 -1.862645E-08 6.06208
v 0 3.0002 6.06208
v 0 2.0001 6.06208
v -6.092846 2.0001 6.06208
v -6.092846 3.0002 6.06208
v -6.092846 4.0004 7.06198
v 0 4.0004 7.06198
v -6.092846 4.0004 8.062181
v 0 4.0004 8.062181
v 0 1 6.06208
v -6.092846 1 6.06208
v -6.092846 4.0003 5.06198
v 0 4.0003 5.06198
v -6.092846 4.0003 6.06208
v 0 4.0003 6.06208

vt 0 -1.862645E-08
vt -6.092846 -1.862645E-08
vt 0 1
vt -6.092846 1
vt -1 1.117587E-08
vt -1 1
vt 6.092846 1.117587E-08
vt 6.092846 1
vt 1 0
vt 1 1
vt 0 -1
vt 6.092846 -1
vt -6.092846 -1
vt -2.049947E-17 3.06178
vt -6.092846 3.06178
vt -3.06178 1
vt -3.06178 1.117587E-08
vt 3.06178 1.117587E-08
vt 3.06178 1
vt 6.092846 3.06178
vt 6.092846 2.0001
vt 0 2.0001
vt 3.06178 2.0001
vt -3.06178 2.0001
vt -6.092846 2.0001
vt -4.06188 2.0001
vt -4.06188 1
vt 4.06188 1
vt 4.06188 2.0001
vt 6.092846 4.06188
vt 0 4.06188
vt -6.092846 4.06188
vt -4.06188 -1.862645E-08
vt 4.06188 -1.862645E-08
vt -5.06198 2.0001
vt -5.06198 1
vt 5.06198 1
vt 5.06198 2.0001
vt 6.092846 5.06198
vt 0 5.06198
vt -6.092846 5.06198
vt -5.06198 -1.862645E-08
vt 5.06198 -1.862645E-08
vt 6.092846 3.0002
vt 0 3.0002
vt 4.06188 3.0002
vt 3.06178 3.0002
vt -3.06178 3.0002
vt -4.06188 3.0002
vt 5.06198 3.0002
vt -5.06198 3.0002
vt -6.092846 3.0002
vt 0 6.06208
vt -6.092846 6.06208
vt -6.06208 3.0002
vt -6.06208 2.0001
vt 6.06208 2.0001
vt 6.06208 3.0002
vt 6.092846 7.06198
vt 0 7.06198
vt 6.092846 8.062181
vt 0 8.062181
vt -6.06208 1
vt 6.06208 1
vt -6.06208 -1.862645E-08
vt 6.06208 -1.862645E-08
vt 6.092846 4.0003
vt 0 4.0003
vt 6.06208 4.0003
vt 5.06198 4.0003
vt -5.06198 4.0003
vt -6.06208 4.0003
vt -6.092846 4.0004
vt 6.092846 5.062181
vt 0 5.062181
vt 6.092846 7.062181
vt 0 7.062181
vt 8.062181 4.0004
vt 7.06198 4.0004
vt -7.06198 4.0004
vt -8.062181 4.0004
vt -6.092846 8.062181
vt -8.062181 3.0002
vt 8.062181 3.0002
vt -8.062181 2.0001
vt 8.062181 2.0001
vt -8.062181 1
vt 8.062181 1
vt -8.062181 -1.862645E-08
vt 8.062181 -1.862645E-08

vn 0 0 1
vn -1 0 0
vn 0 0 -1
vn 1 0 0
vn 0 1 0
vn -1.834261E-09 -1 0

usemtl ProBuilderDefault
f 3/3/1 4/4/1 2/2/1 1/1/1
f 7/3/2 8/6/2 6/5/2 5/1/2
f 8/8/3 10/3/3 9/1/3 6/7/3
f 10/10/4 12/3/4 11/1/4 9/9/4
f 10/11/5 8/12/5 7/7/5 12/1/5
f 11/1/6 5/2/6 6/13/6 9/11/6
f 13/14/6 14/15/6 5/2/6 11/1/6
f 15/16/4 13/17/4 11/1/4 12/3/4
f 14/18/2 16/19/2 7/3/2 5/1/2
f 19/20/5 20/14/5 18/1/5 17/7/5
f 17/21/3 18/22/3 12/3/3 7/8/3
f 19/23/2 17/22/2 7/3/2 16/19/2
f 18/22/4 20/24/4 15/16/4 12/3/4
f 21/22/1 22/25/1 4/4/1 3/3/1
f 23/26/4 24/27/4 15/16/4 20/24/4
f 25/28/2 26/29/2 19/23/2 16/19/2
f 29/30/5 30/31/5 28/14/5 27/20/5
f 31/31/6 32/32/6 14/15/6 13/14/6
f 24/27/4 31/33/4 13/17/4 15/16/4
f 32/34/2 25/28/2 16/19/2 14/18/2
f 33/35/4 34/36/4 24/27/4 23/26/4
f 35/37/2 36/38/2 26/29/2 25/28/2
f 37/39/5 38/40/5 30/31/5 29/30/5
f 39/40/6 40/41/6 32/32/6 31/31/6
f 34/36/4 39/42/4 31/33/4 24/27/4
f 40/43/2 35/37/2 25/28/2 32/34/2
f 27/44/3 28/45/3 20/22/3 19/21/3
f 29/46/2 27/47/2 19/23/2 26/29/2
f 28/48/4 30/49/4 23/26/4 20/24/4
f 37/50/2 29/46/2 26/29/2 36/38/2
f 30/49/4 38/51/4 33/35/4 23/26/4
f 41/45/1 42/52/1 22/25/1 21/22/1
f 43/53/6 44/54/6 40/41/6 39/40/6
f 45/55/4 46/56/4 33/35/4 38/51/4
f 47/57/2 48/58/2 37/50/2 36/38/2
f 51/61/5 52/62/5 50/60/5 49/59/5
f 46/56/4 53/63/4 34/36/4 33/35/4
f 54/64/2 47/57/2 36/38/2 35/37/2
f 53/63/4 43/65/4 39/42/4 34/36/4
f 44/66/2 54/64/2 35/37/2 40/43/2
f 55/67/3 56/68/3 38/45/3 37/44/3
f 57/69/2 55/70/2 37/50/2 48/58/2
f 56/71/4 58/72/4 45/55/4 38/51/4
f 52/68/1 51/73/1 42/52/1 41/45/1
f 49/76/5 50/77/5 56/75/5 55/74/5
f 51/78/2 49/79/2 55/70/2 57/69/2
f 50/80/4 52/81/4 58/72/4 56/71/4
f 1/62/6 2/82/6 44/54/6 43/53/6
f 52/81/4 41/83/4 45/55/4 58/72/4
f 42/84/2 51/78/2 57/69/2 48/58/2
f 41/83/4 21/85/4 46/56/4 45/55/4
f 22/86/2 42/84/2 48/58/2 47/57/2
f 21/85/4 3/87/4 53/63/4 46/56/4
f 4/88/2 22/86/2 47/57/2 54/64/2
f 3/87/4 1/89/4 43/65/4 53/63/4
f 2/90/2 4/88/2 54/64/2 44/66/2

