# ProBuilder 4.4.0
# https://unity3d.com/unity/features/worldbuilding/probuilder
# 14.12.2020 15:27:18

mtllib ./RFA_demo_props_1.mtl
o RFA_demo_props_1

g Cube (1)
v 0 0 0
v -2.279652 1.490116E-08 -2.384186E-07
v 0 1 0
v -2.279652 1.781378 -2.384186E-07
v -10.02765 7.450581E-08 -2.384186E-07
v -10.02765 7.450581E-08 -10.30414
v -10.02765 1.781378 -2.384186E-07
v -10.02765 1.781378 -10.30414
v -2.279652 1.490116E-08 -10.30414
v 0 1.490116E-08 -10.30414
v -2.279652 1.781378 -10.30414
v 0 1 -10.30414
v -4.998911 1.490116E-08 -2.384186E-07
v -4.998911 1.490116E-08 -10.30414
v -4.998911 1.781378 -2.384186E-07
v -4.998911 1.781378 -10.30414
v -8.053981 1.490116E-08 -2.384186E-07
v -8.053981 1.490116E-08 -10.30414
v -8.053981 1.781378 -2.384186E-07
v -8.053981 1.781378 -10.30414
v -4.998911 2.827662 -10.30414
v -4.998911 2.827662 -2.384186E-07
v -8.053981 2.827662 -10.30414
v -8.053981 2.827662 -2.384186E-07
v -10.02765 2.827662 -2.384186E-07
v -10.02765 2.827662 -10.30414

vt 0 0
vt -2.279652 1.490116E-08
vt 0 1
vt -2.279652 1.781378
vt -10.30414 7.450581E-08
vt -2.384186E-07 1.781378
vt -10.30414 1.781378
vt 2.279652 1.490116E-08
vt 2.279652 1.781378
vt 10.30414 1.490116E-08
vt 10.30414 1
vt 0.3242437 0
vt 2.734092 -2.384186E-07
vt 0.3242437 -10.30414
vt 2.734092 -10.30414
vt 0 -10.30414
vt -2.279652 -10.30414
vt -4.998911 -2.384186E-07
vt -4.998911 -10.30414
vt -4.998911 1.781378
vt 4.998911 1.490116E-08
vt 4.998911 1.781378
vt 2.279652 -10.30414
vt 4.998911 -10.30414
vt -8.053981 -2.384186E-07
vt -8.053981 -10.30414
vt -8.053981 1.781378
vt 8.053981 1.490116E-08
vt 8.053981 1.781378
vt 8.053981 -10.30414
vt 10.30414 1.781378
vt 10.30414 2.827662
vt 2.384186E-07 2.827662
vt 8.053981 2.827662
vt 4.998911 2.827662
vt -4.998911 2.827662
vt -8.053981 2.827662
vt -10.30414 2.827662
vt -10.02765 2.827662
vt -10.02765 1.781378
vt 10.02765 1.781378
vt 10.02765 2.827662
vt 10.02765 -10.30414
vt 10.02765 -2.384186E-07
vt -10.02765 -2.384186E-07
vt -10.02765 -10.30414

vn -1.045855E-07 0 1
vn -1 0 0
vn 0 0 -1
vn 1 0 0
vn 0.3242437 0.9459736 0
vn 0 -1 -1.446134E-09
vn 0 1 0

usemtl ProBuilderDefault
f 3/3/1 4/4/1 2/2/1 1/1/1
f 7/6/2 8/7/2 6/5/2 5/1/2
f 11/9/3 12/3/3 10/1/3 9/8/3
f 12/11/4 3/3/4 1/1/4 10/10/4
f 12/14/5 11/15/5 4/13/5 3/12/5
f 1/1/6 2/2/6 9/17/6 10/16/6
f 13/18/6 14/19/6 9/17/6 2/2/6
f 15/20/1 13/18/1 2/2/1 4/4/1
f 14/21/3 16/22/3 11/9/3 9/8/3
f 16/24/7 15/21/7 4/8/7 11/23/7
f 17/25/6 18/26/6 14/19/6 13/18/6
f 19/27/1 17/25/1 13/18/1 15/20/1
f 18/28/3 20/29/3 16/22/3 14/21/3
f 23/30/7 24/28/7 22/21/7 21/24/7
f 21/32/4 22/33/4 15/6/4 16/31/4
f 23/34/3 21/35/3 16/22/3 20/29/3
f 22/36/1 24/37/1 19/27/1 15/20/1
f 25/33/2 26/38/2 8/7/2 7/6/2
f 25/39/1 7/40/1 19/27/1 24/37/1
f 8/41/3 26/42/3 23/34/3 20/29/3
f 26/43/7 25/44/7 24/28/7 23/30/7
f 5/45/6 6/46/6 18/26/6 17/25/6
f 7/40/1 5/45/1 17/25/1 19/27/1
f 6/44/3 8/41/3 20/29/3 18/28/3

